<svg width="44" height="30" viewBox="0 0 44 30" fill="none" xmlns="http://www.w3.org/2000/svg">
<g clip-path="url(#clip0_1_3425)">
<path d="M23.047 7.73698C24.9397 7.74418 26.7077 8.26254 28.4039 9.06887C30.1073 9.87761 31.8825 10.4584 33.7655 10.6407C36.3745 10.8927 38.8158 10.4128 41.0007 8.89369C41.2115 8.7473 41.4199 8.59851 41.6906 8.58171C41.8943 8.56971 42.0428 8.62731 42.1266 8.83849C42.5315 9.85841 42.6944 10.9047 42.4309 11.9798C42.1913 12.9566 41.5038 13.5877 40.6605 14.0605C39.7908 14.5476 38.8421 14.7852 37.8551 14.8668C36.6404 14.97 35.4186 15.0252 34.2064 15.1452C33.1954 15.2436 32.1844 15.3876 31.3051 15.9707C30.723 16.3571 30.3301 16.885 30.1001 17.5402C30.0114 17.7946 30.0809 17.8666 30.3468 17.7994C30.8811 17.6674 31.4153 17.5522 31.9688 17.5762C33.0492 17.6242 33.6314 18.1641 33.7392 19.2345C33.835 20.2016 33.5619 21.1087 33.2457 22.0014C32.8911 23.0022 32.4359 23.9621 31.9424 24.9004C31.7699 25.2292 31.7723 25.2364 32.1293 25.2868C32.9414 25.3972 33.7679 25.4068 34.5585 25.6635C34.8197 25.7475 35.0712 25.8507 35.3156 25.9779C35.9385 26.2947 35.9049 26.8706 35.5935 27.3194C35.2988 27.7418 34.9466 27.8282 34.386 28.0634C34.3645 28.073 34.3381 28.0826 34.3142 28.0874C33.3703 28.3513 32.4096 28.5721 31.4249 28.5457C30.4355 28.5193 29.3598 28.2769 29.3095 28.2577C28.6483 27.9986 28.5141 27.7466 28.689 27.065C28.9645 25.9899 29.1753 24.9076 29.1298 23.7917C29.1154 23.4533 29.0699 23.1221 28.9909 22.7958C28.7369 21.7375 27.9391 21.1663 26.8419 21.2287C26.3963 21.2551 25.9722 21.3751 25.5482 21.4975C25.4787 21.5167 25.3949 21.5935 25.3278 21.5239C25.2463 21.4423 25.3326 21.3559 25.3637 21.2815C25.9531 19.8608 27.7091 15.6347 28.0062 14.946C28.1116 14.6988 28.0469 14.562 27.8098 14.442C26.909 13.9885 25.9674 13.6285 25.0499 13.2133C23.7466 12.6254 22.4361 12.0494 21.1281 11.4687C20.7471 11.3007 20.6417 11.3415 20.4932 11.7375C20.1841 12.5606 19.7912 13.3357 19.2618 14.0461C18.7731 14.7036 18.1574 15.198 17.4051 15.498C16.6217 15.8099 15.8119 15.7763 15.0118 15.5412C14.8824 15.5028 14.7554 15.4596 14.6284 15.414C14.0559 15.2028 13.7205 14.6076 13.8426 14.0101C14.0942 12.7742 14.6165 11.6583 15.5412 10.7583C17.1655 9.17926 19.118 8.22174 21.3557 7.85937C21.9139 7.76818 22.4793 7.73218 23.047 7.73458V7.73698Z" fill="white"/>
<path d="M10.4119 24.1685C9.88484 24.1685 9.61891 23.9021 9.66443 23.3789C9.71235 22.8198 9.90401 22.2918 10.11 21.7759C10.6179 20.4944 11.3367 19.3497 12.3764 18.4209C12.7957 18.0466 12.8172 18.0418 13.3323 18.2674C16.3845 19.6184 19.439 20.9647 22.4912 22.3134C22.7164 22.4142 22.9392 22.5222 23.1572 22.6374C23.2937 22.7094 23.38 22.8222 23.2914 22.9854C22.5774 24.3221 21.6527 25.4212 20.105 25.8147C19.3647 26.0043 18.6652 25.8627 18.0064 25.5052C16.8636 24.8884 15.9101 24.0341 15.0165 23.1078C14.6715 22.7502 14.3361 22.3878 14.0055 22.0183C13.8809 21.8791 13.7803 21.8695 13.6222 21.9655C13.4233 22.0854 13.3012 22.2654 13.1574 22.4334C12.6136 23.0718 12.0314 23.6597 11.2336 23.9765C10.9701 24.0821 10.7042 24.1757 10.4119 24.1613V24.1685Z" fill="white"/>
<path d="M33.9069 8.92728C31.5902 8.96328 30.0953 7.02424 30.1144 5.18358C30.136 3.03816 31.7986 1.40629 33.9237 1.43028C35.9864 1.45428 37.6155 3.14855 37.6059 5.23398C37.5963 7.54979 35.5887 8.97288 33.9069 8.92728Z" fill="white"/>
<path d="M43.4634 8.31534C43.1735 7.58339 42.529 7.14663 41.7384 7.14663C41.6953 7.14663 41.6522 7.14663 41.6067 7.15143C40.9359 7.18983 40.4711 7.5138 40.1908 7.70818L40.1764 7.71778C39.3163 8.31534 38.3964 8.7329 37.4046 8.98488C38.4515 8.01296 39.0313 6.68827 39.0384 5.24838C39.0528 2.38781 36.7649 0.0335973 33.9379 0H33.8732C30.984 0 28.7009 2.27502 28.6721 5.17879C28.6625 6.16991 28.9596 7.15143 29.4986 7.99616C29.3381 7.92417 29.1776 7.85457 29.0147 7.77778C26.9472 6.79626 24.9971 6.3163 23.0493 6.3091H22.9823C22.3354 6.3091 21.7101 6.35709 21.1232 6.45308C18.5741 6.86585 16.3581 7.97216 14.5373 9.74082C13.8282 10.4296 13.2795 11.2575 12.8938 12.203H9.20919C7.76217 12.203 6.58587 13.3813 6.58587 14.8308C6.58587 15.2604 6.69128 15.6635 6.87335 16.0211H2.62333C1.1763 16.0211 0 17.1994 0 18.6489C0 20.0984 1.1763 21.2767 2.62333 21.2767H8.76119C8.53599 21.8455 8.29163 22.515 8.22694 23.2661C8.15507 24.1037 8.4737 24.6412 8.75161 24.946C9.02951 25.2508 9.53741 25.6132 10.3783 25.618C10.4071 25.618 10.4334 25.618 10.4622 25.618C10.9629 25.618 11.3821 25.4788 11.7582 25.33C12.6015 24.9964 13.2364 24.4732 13.7731 23.9093C13.8401 23.9813 13.9096 24.0533 13.9767 24.1229C14.7841 24.958 15.8933 26.0163 17.3187 26.7867C18.0135 27.161 18.7274 27.3506 19.439 27.3506C19.7768 27.3506 20.1194 27.3074 20.4524 27.2234C22.7403 26.6427 23.8878 24.922 24.5538 23.6765C24.6928 23.4197 25.1839 23.0814 25.39 22.9998C25.7278 22.8654 26.5758 22.599 26.9568 22.671C27.3089 22.7358 27.5054 22.7886 27.5916 23.1413C27.6467 23.3741 27.6803 23.6165 27.6923 23.8613C27.733 24.8524 27.515 25.8603 27.297 26.7171C26.94 28.109 27.4431 29.0833 28.7895 29.6088C29.0554 29.712 30.3108 29.9664 31.3889 29.9928C31.4536 29.9928 31.5206 29.9952 31.5853 29.9952C32.7113 29.9952 33.7487 29.748 34.7022 29.4816C34.7812 29.46 34.8627 29.4312 34.9417 29.3976C35.0208 29.3641 35.0975 29.3329 35.1669 29.3065C35.6628 29.1073 36.2786 28.8577 36.7721 28.1497C37.2033 27.533 37.3495 26.8299 37.1841 26.1699C37.026 25.5412 36.5948 25.018 35.9671 24.6988C35.6557 24.5404 35.3394 24.4085 35.0016 24.3005C34.6495 24.1853 34.2997 24.1109 33.9619 24.0581C34.2086 23.5133 34.4195 22.9974 34.5992 22.491C34.9417 21.5239 35.2963 20.3864 35.1693 19.0977C35.0591 17.9938 34.5608 17.149 33.7678 16.6499C33.9571 16.6235 34.1511 16.6043 34.3452 16.5851C35.028 16.5179 35.7347 16.4699 36.4175 16.4243C36.9254 16.3907 37.4525 16.3547 37.9747 16.3091C39.266 16.2011 40.3729 15.8795 41.3623 15.3252C42.7135 14.5692 43.5185 13.5877 43.8275 12.3302C44.1437 11.0439 44.024 9.72882 43.4634 8.31293V8.31534Z" fill="white"/>
<path d="M23.0445 7.7466C24.9371 7.7538 26.7052 8.27216 28.4014 9.0785C30.1047 9.88723 31.88 10.468 33.763 10.6504C36.372 10.9024 38.8132 10.4224 40.9981 8.90331C41.209 8.75692 41.4174 8.60813 41.6881 8.59133C41.8917 8.57934 42.0403 8.63693 42.1241 8.84811C42.529 9.86803 42.6919 10.9143 42.4284 11.9895C42.1888 12.9662 41.5012 13.5973 40.6579 14.0701C39.7883 14.5573 38.8396 14.7948 37.8525 14.8764C36.6379 14.9796 35.4161 15.0348 34.2038 15.1548C33.1928 15.2532 32.1818 15.3972 31.3026 15.9803C30.7204 16.3667 30.3275 16.8947 30.0975 17.5498C30.0089 17.8042 30.0784 17.8762 30.3443 17.809C30.8786 17.677 31.4128 17.5618 31.9662 17.5858C33.0467 17.6338 33.6289 18.1738 33.7367 19.2441C33.8325 20.2112 33.5594 21.1183 33.2431 22.0111C32.8886 23.0118 32.4334 23.9717 31.9399 24.91C31.7674 25.2388 31.7698 25.246 32.1267 25.2964C32.9389 25.4068 33.7654 25.4164 34.556 25.6732C34.8171 25.7572 35.0687 25.8604 35.3131 25.9875C35.9359 26.3043 35.9024 26.8803 35.591 27.329C35.2963 27.7514 34.9441 27.8378 34.3835 28.073C34.3619 28.0826 34.3356 28.0922 34.3116 28.097C33.3677 28.361 32.407 28.5817 31.4224 28.5553C30.433 28.5289 29.3573 28.2866 29.307 28.2674C28.6457 28.0082 28.5116 27.7562 28.6865 27.0747C28.962 25.9995 29.1728 24.9172 29.1273 23.8013C29.1129 23.4629 29.0674 23.1318 28.9883 22.8054C28.7344 21.7471 27.9366 21.1759 26.8394 21.2383C26.5111 21.2575 26.1949 21.3271 25.8811 21.4135C25.7685 21.4447 25.3923 21.6055 25.3229 21.5359C25.2414 21.4543 25.4187 21.1447 25.4546 21.0607C26.1182 19.4601 27.7186 15.6132 27.9989 14.958C28.1043 14.7108 28.0396 14.5741 27.8024 14.4541C26.9016 14.0005 25.9601 13.6405 25.0426 13.2254C23.7393 12.6374 22.4288 12.0615 21.1207 11.4807C20.7398 11.3127 20.6344 11.3535 20.4859 11.7495C20.1768 12.5726 19.7839 13.3478 19.2545 14.0581C18.7657 14.7156 18.15 15.21 17.3978 15.51C16.6144 15.822 15.8046 15.7884 15.0044 15.5532C14.8751 15.5148 14.7481 15.4716 14.6211 15.426C14.0485 15.2148 13.7131 14.6197 13.8353 14.0221C14.0869 12.7862 14.6091 11.6703 15.5339 10.7704C17.1582 9.19129 19.1107 8.23376 21.3483 7.87139C21.9065 7.7802 22.4719 7.7442 23.0397 7.7466H23.0445Z" fill="#55BBD1"/>
<path d="M10.4095 24.1781C9.8824 24.1781 9.61647 23.9117 9.66199 23.3886C9.70991 22.8294 9.90156 22.3014 10.1076 21.7855C10.6155 20.504 11.3342 19.3593 12.374 18.4306C12.7932 18.0562 12.8148 18.0514 13.3299 18.277C16.382 19.6281 19.4366 20.9743 22.4887 22.323C22.7139 22.4238 22.9367 22.5318 23.1547 22.647C23.2913 22.719 23.3776 22.8318 23.2889 22.995C22.575 24.3317 21.6502 25.4308 20.1026 25.8244C19.3623 26.0139 18.6628 25.8724 18.0039 25.5148C16.8612 24.898 15.9077 24.0437 15.0141 23.1174C14.6691 22.7598 14.3337 22.3974 14.0031 22.0279C13.8785 21.8887 13.7779 21.8791 13.6197 21.9751C13.4209 22.0951 13.2987 22.275 13.155 22.443C12.6111 23.0814 12.029 23.6693 11.2312 23.9861C10.9677 24.0917 10.7017 24.1853 10.4095 24.1709V24.1781Z" fill="#55BBD1"/>
<path d="M33.9044 8.9369C31.5878 8.9729 30.0928 7.03385 30.112 5.1932C30.1336 3.04777 31.7962 1.4159 33.9212 1.4399C35.9839 1.4639 37.613 3.15816 37.6035 5.24359C37.5939 7.55941 35.5862 8.98249 33.9044 8.9369Z" fill="#55BBD1"/>
</g>
<defs>
<clipPath id="clip0_1_3425">
<rect width="44" height="30" fill="white"/>
</clipPath>
</defs>
</svg>
